<svg width="13.538574" height="16.000000" viewBox="0 0 13.5386 16" fill="none" xmlns="http://www.w3.org/2000/svg" xmlns:xlink="http://www.w3.org/1999/xlink">
	<desc>
			Created with Pixso.
	</desc>
	<defs/>
	<path id="Vector" d="M10.08 0C10.04 -0.04 8.77 0.02 7.66 1.17C6.55 2.33 6.72 3.66 6.74 3.69C6.77 3.72 8.33 3.78 9.32 2.43C10.31 1.09 10.11 0.04 10.08 0ZM13.53 11.74C13.48 11.64 11.11 10.5 11.33 8.31C11.55 6.12 13.07 5.53 13.1 5.46C13.12 5.39 12.48 4.67 11.79 4.3C11.29 4.04 10.73 3.9 10.16 3.87C10.05 3.87 9.66 3.77 8.86 3.98C8.33 4.12 7.14 4.57 6.81 4.59C6.48 4.61 5.5 4.07 4.45 3.93C3.77 3.8 3.06 4.06 2.55 4.26C2.04 4.45 1.07 5.01 0.39 6.49C-0.29 7.97 0.06 10.32 0.32 11.05C0.57 11.78 0.97 12.98 1.64 13.85C2.24 14.83 3.04 15.52 3.37 15.75C3.7 15.98 4.64 16.13 5.29 15.81C5.81 15.51 6.76 15.33 7.13 15.34C7.5 15.35 8.23 15.5 8.99 15.88C9.58 16.08 10.14 16 10.71 15.78C11.27 15.55 12.08 14.72 13.04 13.02C13.4 12.23 13.56 11.8 13.53 11.74Z" fill="#FFFFFF" fill-opacity="1.000000" fill-rule="nonzero"/>
</svg>
