<svg width="20.000000" height="20.000000" viewBox="0 0 20 20" fill="none" xmlns="http://www.w3.org/2000/svg" xmlns:xlink="http://www.w3.org/1999/xlink">
	<desc>
			Created with Pixso.
	</desc>
	<defs/>
	<path id="facebook" d="M20 10C20 4.5 15.5 0 10 0C4.5 0 0 4.5 0 10C0 15 3.62 19.12 8.37 19.87L8.37 12.87L5.87 12.87L5.87 10L8.37 10L8.37 7.75C8.37 5.25 9.87 3.87 12.12 3.87C13.25 3.87 14.37 4.12 14.37 4.12L14.37 6.62L13.12 6.62C11.87 6.62 11.5 7.37 11.5 8.12L11.5 10L14.25 10L13.75 12.87L11.37 12.87L11.37 20C16.37 19.25 20 15 20 10Z" fill="#1877F2" fill-opacity="1.000000" fill-rule="nonzero"/>
</svg>
