<svg width="18.000000" height="18.000000" viewBox="0 0 18 18" fill="none" xmlns="http://www.w3.org/2000/svg" xmlns:xlink="http://www.w3.org/1999/xlink">
	<desc>
			Created with Pixso.
	</desc>
	<defs/>
	<rect id="Component 37" rx="0.000000" width="17.000000" height="17.000000" transform="translate(0.500000 0.500000)" fill="#FFFFFF" fill-opacity="0"/>
	<path id="google" d="M18 9.74C18 9.13 17.94 8.55 17.82 8L9 8L9 11.29L14.04 11.29C13.82 12.35 13.16 13.25 12.17 13.86L12.17 16L15.2 16C16.97 14.51 18 12.33 18 9.74Z" fill="#4285F4" fill-opacity="1.000000" fill-rule="evenodd"/>
	<path id="google" d="M9.04 18C11.47 18 13.51 17.22 15 15.9L12.09 13.73C11.28 14.25 10.25 14.56 9.04 14.56C6.69 14.56 4.71 13.04 4 11L1 11L1 13.23C2.48 16.06 5.52 18 9.04 18Z" fill="#34A853" fill-opacity="1.000000" fill-rule="evenodd"/>
	<path id="google" d="M4 10.69C3.81 10.15 3.71 9.58 3.71 9C3.71 8.41 3.81 7.84 4 7.3L4 5L0.96 5C0.35 6.2 0 7.56 0 9C0 10.43 0.35 11.79 0.96 13L4 10.69Z" fill="#FBBC05" fill-opacity="1.000000" fill-rule="evenodd"/>
	<path id="google" d="M9 3.43C10.32 3.43 11.5 3.87 12.43 4.72L15 2.25C13.44 0.85 11.42 0 9 0C5.5 0 2.47 1.93 1 4.76L3.99 7C4.69 4.95 6.67 3.43 9 3.43Z" fill="#EA4335" fill-opacity="1.000000" fill-rule="evenodd"/>
</svg>
