<svg width="53.000000" height="53.000000" viewBox="0 0 53 53" fill="none" xmlns="http://www.w3.org/2000/svg" xmlns:xlink="http://www.w3.org/1999/xlink">
	<desc>
			Created with Pixso.
	</desc>
	<defs>
		<clipPath id="clip1_199">
			<rect id="Brand/Logo" rx="0.000000" width="52.779964" height="52.779964" transform="translate(0.110018 0.110018)" fill="white" fill-opacity="0"/>
		</clipPath>
	</defs>
	<rect id="Brand/Logo" rx="0.000000" width="52.779964" height="52.779964" transform="translate(0.110018 0.110018)" fill="#FFFFFF" fill-opacity="0"/>
	<g clip-path="url(#clip1_199)">
		<path id="Vector" d="M26.47 0.08C11.89 0.08 0.08 11.9 0.08 26.48C0.08 41.05 11.89 52.87 26.47 52.87C41.05 52.87 52.86 41.05 52.86 26.48C52.86 11.9 41.05 0.08 26.47 0.08ZM38.57 38.15C38.1 38.93 37.09 39.17 36.31 38.7C30.11 34.91 22.31 34.05 13.12 36.15C12.24 36.35 11.36 35.8 11.16 34.91C10.95 34.03 11.5 33.15 12.39 32.94C22.45 30.65 31.07 31.64 38.03 35.89C38.8 36.36 39.05 37.38 38.57 38.15ZM41.8 30.96C41.21 31.93 39.94 32.24 38.97 31.64C31.88 27.28 21.06 26.02 12.67 28.57C11.58 28.89 10.43 28.28 10.1 27.19C9.78 26.11 10.39 24.96 11.48 24.63C21.06 21.72 32.98 23.13 41.13 28.13C42.09 28.73 42.4 30 41.8 30.96ZM42.08 23.48C33.58 18.43 19.54 17.96 11.42 20.43C10.11 20.82 8.73 20.09 8.34 18.78C7.94 17.48 8.68 16.1 9.98 15.7C19.31 12.87 34.81 13.42 44.6 19.23C45.78 19.93 46.16 21.45 45.47 22.62C44.77 23.79 43.25 24.18 42.08 23.48Z" fill="#F5F5F5" fill-opacity="1.000000" fill-rule="nonzero"/>
	</g>
</svg>
